<svg xmlns="http://www.w3.org/2000/svg" viewBox="0 0 15.4256 23.8976"><defs><filter id="___SVG_ID__0__0___" height="2.031" width="1.113" x="-.056" y="-.515"><feMorphology in="SourceAlpha" operator="dilate" radius=".5" result="shadowSpreadOuter1"></feMorphology><feOffset in="shadowSpreadOuter1" result="shadowOffsetOuter1"></feOffset><feGaussianBlur in="shadowOffsetOuter1" result="shadowBlurOuter1" stdDeviation="4.5"></feGaussianBlur><feColorMatrix in="shadowBlurOuter1" values="0 0 0 0 0 0 0 0 0 0 0 0 0 0 0 0 0 0 0.07 0"></feColorMatrix></filter><filter height="1.9396" y="-.4698" width="1.4698" x="-.2349" id="___SVG_ID__0__1___" color-interpolation-filters="sRGB"><feGaussianBlur stdDeviation=".3663"></feGaussianBlur></filter><filter height="1.8557" y="-.4278" width="1.494" x="-.247" id="___SVG_ID__0__2___" color-interpolation-filters="sRGB"><feGaussianBlur stdDeviation=".5838"></feGaussianBlur></filter><rect id="___SVG_ID__0__3___" height="29.101" rx="3.028" width="265.797" x="0" y="0"></rect></defs><path d="m 541.85742,313.01172 a 7.4315515,7.4315515 0 0 0 -7.46289,7.46289 v 0.20703 a 5.7615634,5.7615634 0 0 0 -3.77344,5.05859 v 0.16602 0.33203 0.99414 c 0,2.44661 2.61333,4.89453 5.88868,4.89453 h 17.41211 c 3.23468,0 5.88867,-2.48767 5.88867,-4.89257 v -0.9961 -0.33203 -0.16602 a 5.931481,5.931481 0 0 0 -5.22657,-5.3457 3.7350609,3.7350609 0 0 0 -3.77148,-3.64844 3.7923951,3.7923951 0 0 0 -2.15625,0.66211 7.4138301,7.4138301 0 0 0 -6.79883,-4.39648 z" transform="matrix(.26458 0 0 .26458 -135.4854 -82.642)" fill="url(#hero-img-color1)"></path><g transform="matrix(.7713 .42212 -.68485 .4754 301.037 28.082)"><use transform="matrix(.02586 0 0 .02586 -225.4888 175.2073)" xlink:href="#___SVG_ID__0__3___" width="100%" height="100%" fill-rule="evenodd" filter="url(#___SVG_ID__0__0___)"></use><use transform="matrix(.02586 0 0 .02586 -225.4888 174.5525)" xlink:href="#___SVG_ID__0__3___" width="100%" height="100%" fill="url(#hero-img-color1)" fill-rule="evenodd"></use><rect y="174.8536" x="-225.2342" width="2.8262" rx=".0218" height=".1505" fill="url(#hero-img-color2)" fill-opacity=".9922"></rect><g transform="matrix(.02586 0 0 .02586 -219.3271 174.7783)" fill="none" fill-rule="evenodd" stroke="url(#hero-img-color2)" stroke-width="3.6764" stroke-opacity=".9922"><ellipse stroke="url(#hero-img-color2)" ry="7.429" rx="7.5389" cy="3.6956" cx="3.7501"></ellipse><path stroke="url(#hero-img-color2)" d="M 9.1343187,9.0010865 15.596735,15.368323" stroke-linecap="round"></path></g></g><g transform="matrix(.7713 .42212 -.68485 .4754 301.037 28.082)"><rect ry=".5126" y="173.6824" x="-226.8651" height="9.8689" width="9.8689" fill="none" stroke="url(#hero-img-color1)" stroke-width=".228"></rect><path d="m -226.86427,174.40368 h 9.83384 l -0.14643,-0.64932 h -9.44771 z" fill="url(#hero-img-color1)"></path></g><g fill="url(#hero-img-color2)" fill-opacity=".9922" fill-rule="evenodd" transform="matrix(.7713 .42212 -.68485 .4754 301.037 28.082)"><circle fill="url(#hero-img-color2)" r=".1354" cy="174.011" cx="-217.601"></circle><circle fill="url(#hero-img-color2)" cx="-218.095" cy="174.011" r=".1354"></circle><circle fill="url(#hero-img-color2)" r=".1354" cy="174.011" cx="-218.589"></circle></g><path d="m -207.00706,177.09921 -2.83583,1.63744 2.83583,1.63724 2.83603,-1.63724 z" opacity=".421" fill-rule="evenodd" filter="url(#___SVG_ID__0__2___)" transform="translate(211.8747 -158.61)"></path><path d="m 322.9707,323.29102 -28.16992,16.26562 28.16992,16.26367 28.17188,-16.26367 z" transform="matrix(.10067 0 0 .10067 -27.6337 -18.0785)" fill="url(#hero-img-color1)" fill-rule="evenodd"></path><path d="m -235.93282,165.80913 -7.45381,4.30309 v 8.60671 l 7.45381,-4.30309 z" fill="url(#hero-img-color3)" fill-rule="evenodd" transform="translate(97.4831 -46.983) scale(.38048)"></path><path d="m 294.80078,339.55664 v 32.5293 l 28.16992,16.26367 v -46.14832 l -27.59596,-2.47212 z" transform="matrix(.10067 0 0 .10067 -27.6337 -18.0785)" fill="url(#hero-img-color1)" fill-rule="evenodd"></path><g fill="#081e6b"><path d="m 20.809,23.875 a 2.866,2.866 0 0 0 2.6,1.6 c 1.09,0 1.787,-0.545 1.787,-1.3 0,-0.9 -0.716,-1.222 -1.916,-1.747 l -0.658,-0.282 c -1.9,-0.809 -3.16,-1.822 -3.16,-3.964 0,-1.973 1.5,-3.476 3.853,-3.476 a 3.889,3.889 0 0 1 3.742,2.107 L 25,18.128 A 1.789,1.789 0 0 0 23.311,17 1.145,1.145 0 0 0 22.052,18.128 c 0,0.789 0.489,1.109 1.618,1.6 l 0.658,0.282 c 2.236,0.959 3.5,1.936 3.5,4.133 0,2.369 -1.861,3.667 -4.36,3.667 a 5.055,5.055 0 0 1 -4.795,-2.691 z m -9.295,0.228 c 0.413,0.733 0.789,1.353 1.693,1.353 0.864,0 1.41,-0.338 1.41,-1.653 v -8.947 h 2.631 v 8.982 c 0,2.724 -1.6,3.964 -3.929,3.964 a 4.085,4.085 0 0 1 -3.947,-2.4 z" fill="url(#hero-img-color3)" transform="matrix(.10067 .05873 0 .10067 1.8593 16.117)"></path></g><ellipse transform="matrix(.6522 0 0 .6522 136.2607 -98.3317)" ry=".9356" rx="1.8712" cy="183.5438" cx="-195.7443" opacity=".279" fill-rule="evenodd" filter="url(#___SVG_ID__0__1___)"></ellipse><g transform="matrix(.7417 0 0 .7417 159.2995 -113.0901)"><path d="m -204.89305,180.28235 -0.75376,-2.49517 0.67282,0.5866 1.71212,0.34884 1.84275,-0.35214 0.62369,-0.5833 -0.75654,2.55696 z" fill="url(#hero-img-color1)"></path><ellipse cx="-203.2196" cy="180.2742" rx="1.6757" ry=".8378" fill="url(#hero-img-color1)" fill-rule="evenodd"></ellipse><path d="m -200.77218,177.63155 a 2.4473958,1.2236979 0 0 1 -2.44739,1.22369 2.4473958,1.2236979 0 0 1 -2.4474,-1.22369 2.4473958,1.2236979 0 0 1 2.4474,-1.2237 2.4473958,1.2236979 0 0 1 2.44739,1.2237 z" fill="url(#hero-img-color1)" fill-rule="evenodd"></path><ellipse ry="1.2237" rx="2.4474" cy="176.813" cx="-203.2196" fill="url(#hero-img-color1)" fill-rule="evenodd"></ellipse><path d="m -203.21958,176.38521 a 2.0339844,1.0169922 0 0 0 -2.03398,1.01699 2.0339844,1.0169922 0 0 0 0.0119,0.10025 2.4473958,1.2236979 0 0 0 2.0221,0.53641 2.4473958,1.2236979 0 0 0 2.02365,-0.53537 2.0339844,1.0169922 0 0 0 0,-5.2e-4 2.0339844,1.0169922 0 0 0 0.0103,-0.10077 2.0339844,1.0169922 0 0 0 -2.03399,-1.01699 z" fill="url(#hero-img-color4)" fill-rule="evenodd"></path></g><g transform="translate(211.8747 -158.61)"><ellipse ry=".2456" rx=".3973" cy="177.0346" cx="-203.408" fill="url(#hero-img-color3)" fill-rule="evenodd"></ellipse><path d="m -203.80353,177.02177 c -0.0295,-0.0982 0.49688,-0.36538 0.0798,-3.7874 0,0 0.55021,-0.17966 0.50535,-0.0172 -0.29984,1.08595 0.24579,3.58021 0.20061,3.78816 z" fill="url(#hero-img-color3)"></path><path d="m -203.24282,173.30477 c -0.0536,0.0715 -0.0311,0.33237 -0.0964,0.34075 -0.0981,0.0126 -0.28131,-0.25515 -0.315,-0.27865 0,0 0.21913,0.0423 0.41137,-0.0621 z" fill="url(#hero-img-color4)"></path><path d="m -200.43869,173.521 c 0,0.47847 -0.19619,1.16703 -0.45244,1.16703 -0.25637,5e-5 -0.45847,-0.75739 -0.75772,-0.9552 -0.65573,-0.43349 0.48986,-1.07827 0.74614,-1.07822 0.2564,1e-5 0.46402,0.38811 0.46402,0.86639 z" fill="url(#hero-img-color4)" fill-rule="evenodd"></path><path d="m -200.67005,172.74404 c 0.24361,0.25808 -0.65598,0.35608 -1.35373,1.09525 -0.69777,0.73919 -1.0813,1.65196 -1.32491,1.39391 -0.24361,-0.25808 0.12451,-1.22734 0.82231,-1.96653 0.69777,-0.73917 1.61274,-0.78068 1.85635,-0.5226 z" fill="url(#hero-img-color3)" fill-rule="evenodd"></path><path d="m -203.50527,174.98966 c -0.1805,0.13442 -0.9306,-0.47685 -1.31555,-0.99388 -0.38495,-0.51703 -0.2684,-0.42409 -0.0879,-0.55848 0.18052,-0.1344 0.35662,-0.44524 0.74156,0.0718 0.38495,0.51702 0.84238,1.34618 0.66186,1.48059 z" fill="url(#hero-img-color4)" fill-rule="evenodd"></path><path d="m -204.56081,173.04917 c 0.31773,0.14855 0.40163,0.28963 0.29896,0.61021 -0.36218,1.15368 -1.61779,2.18882 -2.41804,1.56396 0.54332,-0.98746 1.37871,-2.74019 2.11908,-2.17417 z" fill="url(#hero-img-color3)" fill-rule="evenodd"></path></g><g fill="url(#hero-img-color3)"><path transform="matrix(.11612 -.20111 .20111 .11612 3.2605 11.5496)" d="M-0.43 12.534H22.471V13.721H-0.43z"></path><path d="M4.545 21.162H27.447000000000003V22.349H4.545z" transform="matrix(.23223 0 0 .23223 4.6209 7.809)"></path><path transform="matrix(.11612 -.20111 .20111 .11612 .9489 12.8849)" d="M10.43 18.008H11.616999999999999V31.235H10.43z"></path><path transform="scale(.23223) rotate(-59.999 60.0455 6.965)" d="M20.381 0.771H21.568V13.998000000000001H20.381z"></path><path transform="matrix(.20111 -.11612 .11612 .20111 4.107 9.319)" d="M4.412 6.787H17.639V7.974H4.412z"></path><path transform="matrix(.20111 -.11612 .11612 .20111 3.7493 10.6539)" d="M20.389 1.677H21.576V24.578H20.389z"></path><path d="M5.454 9.386H6.641V22.613999999999997H5.454zM25.36 9.386H26.547V22.613999999999997H25.36z" transform="matrix(.23223 0 0 .23223 4.6209 7.809)"></path><path transform="scale(.23223) rotate(-30.001 93.6686 4.3)" d="M15.222 24.097H26.726V25.134H15.222z"></path><path d="M28.12 23A2.5 2.5 0 1127.205 19.589 2.5 2.5 0 0128.12 23M8.2 11.5A2.5 2.5 0 117.285 8.089 2.5 2.5 0 018.2 11.5M3.88 23A2.5 2.5 0 117.291 23.915 2.5 2.5 0 013.88 23M23.8 11.5A2.5 2.5 0 1127.211 12.415 2.5 2.5 0 0123.8 11.5M16 30A2.5 2.5 0 1118.5 27.5 2.493 2.493 0 0116 30M16 6.991a2.5 2.5 0 112.5-2.5 2.493 2.493 0 01-2.5 2.5" transform="matrix(.23223 0 0 .23223 4.6209 7.809)"></path></g><g transform="rotate(30 392.6473 281.4982)" fill="#030f27" fill-rule="evenodd"><rect ry="0" y="234.6065" x="-78.2096" height="2.1019" width=".1488"></rect><rect width=".1488" height="1.027" x="-76.3627" y="235.0086" ry="0"></rect><rect width=".1488" height="1.1758" x="-79.8065" y="235.7641" ry="0"></rect><rect ry="0" y="243.5452" x="-80.0062" height="2.1019" width=".1488"></rect><rect width=".1488" height="1.2585" x="-78.2762" y="237.7438" ry="0"></rect><rect ry="0" y="241.1185" x="-78.7717" height="2.1019" width=".1488"></rect><rect ry="0" y="239.9507" x="-80.5" height="2.1019" width=".1488"></rect><rect width=".1488" height="2.1019" x="-81.3278" y="237.9469" ry="0"></rect><rect ry="0" y="237.738" x="-80.4062" height="1.2585" width=".1488"></rect><rect width=".1488" height="1.242" x="-81.6207" y="235.8391" ry="0"></rect></g></svg>