<svg xmlns="http://www.w3.org/2000/svg" viewBox="0 0 178.7988 58.5943" height="221.4588" width="675.775">
  <g fill="none" stroke="currentColor" stroke-width="2" stroke-linecap="round" stroke-linejoin="round">
    <path d="M-170.78854 228.6052l-1.5875-26.1276-16.60261 19.71145zM-170.81195 250.41492l-.8419-15.809-20.76685-7.76417-10.66405 12.53494zM-164.63803 237.5058l.93545 15.15418 9.82215.46772v-12.44139zM-209.63285 252.56644l-.28063-5.79975 2.99341-2.80633 23.85381 8.51253zM-209.44576 219.07757l8.13835 7.10937-8.32544 10.94468zM-196.53664 196.90756l11.88013 10.19633 8.13835-9.63506zM-166.78955 197.56237l1.87089 32.55343 10.7576 4.11595-.28064-36.66938zM-230.58437 249.63958l16.13958-31.22083-15.875-1.19063-11.37708 19.57917zM-225.11444 252.65998l10.66406.28064-.28064-20.20558zM-257.57187 252.68229l12.03854-10.05417 9.26042 10.31875zM-245.73177 232.04479l8.59896-15.61042-22.9526-.99219zM-262.59896 249.97031l13.89063-11.17865-9.06198-10.84791-12.10469 9.65729-.19843 4.03489zM-269.94114 231.0526l8.92968-7.54062-9.19427-10.31875zM-265.6659 208.78769l30.77608 1.77734 7.10937-13.18975h-42.37559l-.28064 5.70621zM-227.68691 210.2844l6.64165-12.90912 6.45456.18709.0935 13.84456zM-209.81994 208.50706v4.20949l12.30108 10.00924 9.49475-11.13177-14.40583-11.83336zM-149.57739 228.33846l.28063 24.6957 13.37684.37418 10.57051-13.2833-19.64431-17.21216zM-146.11625 214.21326l9.54152-9.63507-8.04481-7.01582-5.23849-.0935.0936 14.31228zM-141.06486 218.60984l9.44798-10.28987 18.70887 16.37026-8.69963 10.75759zM-127.58591 253.21145l6.35-8.06979 4.16718 8.13594zM-110.85004 252.65998l5.79975.37418 11.412411-13.47039-.09354-21.70228-5.519118-.0935-18.054063 22.17zM-109.9146 220.66782l16.276721-18.42823-.09354-4.58368h-27.689131l-7.10937 7.67064zM-97.660283 253.50188l3.648228-4.8643.187089 4.77076zM-132.41456 201.41927l3.77031-3.77032-8.26822-.13229z" transform="translate(271.4367 -195.9076)"/>
  </g>
</svg>
