<?xml version="1.0" standalone="no"?>
<!DOCTYPE svg PUBLIC "-//W3C//DTD SVG 20010904//EN"
 "http://www.w3.org/TR/2001/REC-SVG-20010904/DTD/svg10.dtd">
<svg version="1.0" xmlns="http://www.w3.org/2000/svg"
 width="700.000000pt" height="700.000000pt" viewBox="0 0 700.000000 700.000000"
 preserveAspectRatio="xMidYMid meet">
<metadata>
Created by potrace 1.11, written by Peter Selinger 2001-2013
</metadata>
<g transform="translate(0.000000,700.000000) scale(0.100000,-0.100000)"
fill="#000000" stroke="none">
<path d="M3369 6526 c-2 -2 -42 -7 -89 -10 -47 -4 -96 -8 -110 -11 -14 -2 -68
-11 -120 -20 -284 -48 -687 -191 -930 -331 -30 -18 -79 -45 -108 -61 -194
-107 -567 -431 -776 -675 -147 -171 -229 -286 -329 -459 -83 -145 -201 -404
-223 -489 -2 -8 -22 -77 -43 -152 -77 -266 -106 -489 -106 -813 1 -245 10
-358 50 -565 80 -424 299 -933 520 -1210 102 -128 99 -125 174 -209 413 -467
902 -788 1432 -940 123 -36 326 -77 424 -87 39 -3 79 -9 90 -11 51 -13 545
-10 650 3 148 18 259 38 330 58 6 2 24 6 40 11 101 26 364 113 490 162 312
122 542 275 601 398 34 71 33 209 -1 275 -36 70 -119 127 -224 155 -83 22
-130 13 -223 -43 -271 -164 -656 -312 -923 -357 -16 -3 -41 -7 -54 -10 -137
-27 -608 -28 -735 0 -11 2 -38 7 -58 10 -201 28 -599 178 -771 292 -506 332
-861 750 -1030 1213 -40 109 -67 194 -74 229 -2 14 -6 28 -8 32 -3 4 -7 24
-11 45 -3 22 -10 58 -15 81 -5 23 -11 63 -14 90 -3 26 -8 59 -11 73 -14 61
-13 477 1 570 47 321 124 559 280 872 84 166 115 215 223 339 450 522 987 825
1587 897 82 10 425 9 505 -1 87 -12 244 -43 362 -73 124 -31 330 -93 343 -103
5 -5 127 -68 269 -141 258 -131 260 -132 313 -126 138 16 248 94 277 196 29
100 23 169 -24 277 -20 48 -31 58 -129 121 -430 277 -849 429 -1341 488 -55 6
-475 15 -481 10z"/>
<path d="M3265 5384 c-298 -45 -564 -146 -795 -303 -402 -272 -677 -678 -784
-1154 -34 -150 -41 -219 -41 -407 0 -198 13 -313 55 -470 21 -79 75 -235 87
-249 1 -2 555 548 1229 1223 675 674 1225 1228 1223 1230 -28 24 -275 98 -389
117 -36 6 -78 13 -95 16 -71 12 -403 10 -490 -3z"/>
<path d="M4184 4468 c-309 -310 -517 -527 -527 -548 -22 -50 -27 -100 -14
-138 8 -23 205 -226 632 -653 341 -342 633 -627 649 -636 107 -56 179 -5 277
197 72 147 70 143 103 241 69 210 95 384 91 624 -2 99 -6 191 -9 205 -3 14
-10 54 -15 90 -15 90 -56 240 -92 335 -95 246 -230 456 -417 649 -71 72 -153
146 -163 146 -3 0 -234 -231 -515 -512z"/>
<path d="M3109 3381 c-24 -16 -271 -256 -548 -534 l-503 -504 28 -34 c318
-372 757 -605 1234 -656 124 -14 472 -5 500 12 3 2 26 6 50 10 188 27 517 159
606 242 79 73 102 148 64 210 -24 40 -1209 1226 -1257 1259 -51 35 -116 33
-174 -5z"/>
</g>
</svg>
